<?xml version="1.0" encoding="utf-8"?>
<!-- Generator: Adobe Illustrator 18.1.1, SVG Export Plug-In . SVG Version: 6.00 Build 0)  -->
<svg version="1.1" id="Layer_1" xmlns="http://www.w3.org/2000/svg" xmlns:xlink="http://www.w3.org/1999/xlink" x="0px" y="0px"
	 viewBox="0 0 106.4 106" enable-background="new 0 0 106.4 106" xml:space="preserve">
<g>
	<g>
		<defs>
			<polygon id="SVGID_1_" points="0,0 106,0 106,106 0,106 0,0 			"/>
		</defs>
		<use xlink:href="#SVGID_1_"  overflow="visible" fill-rule="evenodd" clip-rule="evenodd" fill="#AE4139"/>
		<clipPath id="SVGID_2_">
			<use xlink:href="#SVGID_1_"  overflow="visible"/>
		</clipPath>
		<path clip-path="url(#SVGID_2_)" fill="#FFFFFF" d="M23.5,26.7l-1.3-4h-6.4l-1.4,4h-1.8L18,11.1h1.9l5.4,15.6H23.5z M19.9,16
			c-0.4-1-0.8-2.4-1-3.1c-0.2,0.6-0.6,2-1,3.1l-1.7,5.1h5.4L19.9,16z"/>
		<path clip-path="url(#SVGID_2_)" fill="#FFFFFF" d="M61.9,26.7l-1.3-4h-6.4l-1.4,4H51l5.4-15.6h1.9l5.4,15.6H61.9z M58.3,16
			c-0.4-1-0.8-2.4-1-3.1c-0.2,0.6-0.6,2-1,3.1l-1.7,5.1H60L58.3,16z"/>
		<path clip-path="url(#SVGID_2_)" fill="#FFFFFF" d="M20.8,42.2l3.4,6.8h-2l-3.3-6.6h-3.7V49h-1.7V33.4h6.2c2.7,0,4.9,1.4,4.9,4.4
			C24.5,40.2,23,41.7,20.8,42.2z M19.5,35h-4.4v5.8h4.1c2.3,0,3.4-1,3.4-2.9C22.7,35.9,21.6,35,19.5,35z"/>
		<path clip-path="url(#SVGID_2_)" fill="#FFFFFF" d="M39.3,49l-1.3-4h-6.4l-1.4,4h-1.8l5.4-15.6h1.9L41.1,49H39.3z M35.7,38.3
			c-0.4-1-0.8-2.4-1-3.1c-0.2,0.6-0.6,2-1,3.1L32,43.4h5.4L35.7,38.3z"/>
		<path clip-path="url(#SVGID_2_)" fill="#FFFFFF" d="M45.4,49V33.4h1.7v14h7.7V49H45.4z"/>
		<path clip-path="url(#SVGID_2_)" fill="#FFFFFF" d="M59.3,49V33.4h9.4V35H61v4.9h4.5v1.6H61v5.9h8V49H59.3z"/>
		<path clip-path="url(#SVGID_2_)" fill="#FFFFFF" d="M73.4,49V33.4h1.7V49H73.4z"/>
		<path clip-path="url(#SVGID_2_)" fill="#FFFFFF" d="M86.4,49.2c-3.8,0-6.3-3.5-6.3-8c0-4.6,2.6-8.1,6.4-8.1c2.1,0,3.7,0.8,5,2.5
			l-1.4,1c-1-1.4-1.9-2-3.6-2c-2.7,0-4.6,2.6-4.6,6.4c0,3.8,2,6.5,4.6,6.5c2.6,0,4-1.6,4-4.7v-0.1h-2.8v-1.6h4.5v1.5
			C92.1,47.1,89.7,49.2,86.4,49.2z"/>
		<path clip-path="url(#SVGID_2_)" fill="#FFFFFF" d="M29.3,26.7V11.1h1.7v15.6H29.3z"/>
		<path clip-path="url(#SVGID_2_)" fill="#FFFFFF" d="M42.3,27c-3.8,0-6.3-3.5-6.3-8c0-4.6,2.6-8.1,6.4-8.1c2.1,0,3.7,0.8,5,2.5
			l-1.4,1c-1-1.4-1.9-2-3.6-2c-2.7,0-4.6,2.6-4.6,6.4c0,3.8,2,6.5,4.6,6.5c2.6,0,4-1.6,4-4.7v-0.1h-2.8V19H48v1.5
			C48,24.8,45.6,27,42.3,27z"/>
		<path clip-path="url(#SVGID_2_)" fill="#FFFFFF" d="M106.3,49v-7.3h-7.7V49h-1.7V33.4h1.7V40h7.7v-6.7h1.7V49H106.3z"/>
		<path clip-path="url(#SVGID_2_)" fill="#FFFFFF" d="M17.2,71.2h-3.8V55.7h4.1c4.1,0,7.1,2.3,7.1,7.7C24.7,69,21.4,71.2,17.2,71.2z
			 M17.4,57.2h-2.2v12.4h2.3c3.4,0,5.5-1.8,5.5-6.3C22.9,59.4,21,57.2,17.4,57.2z"/>
		<path clip-path="url(#SVGID_2_)" fill="#FFFFFF" d="M29.2,71.2V55.7h9.4v1.6H31v4.9h4.5v1.6H31v5.9h8v1.6H29.2z"/>
		<path clip-path="url(#SVGID_2_)" fill="#FFFFFF" d="M47.9,71.5c-2.1,0-4-0.9-5.2-2.2l1.2-1.3c1.2,1.1,2.5,1.9,4.1,1.9
			c2.1,0,3.4-1,3.4-2.7c0-1.4-0.9-2.3-3.7-3.3c-3.4-1.2-4.5-2.3-4.5-4.5c0-2.5,2-4,4.9-4c2.1,0,3.4,0.6,4.7,1.7l-1.1,1.4
			c-1.1-0.9-2.2-1.4-3.7-1.4c-2.1,0-3,1.1-3,2.3c0,1.3,0.6,2,3.7,3.1c3.5,1.2,4.5,2.4,4.5,4.7C53.1,69.6,51.2,71.5,47.9,71.5z"/>
		<path clip-path="url(#SVGID_2_)" fill="#FFFFFF" d="M57.7,71.2V55.7h1.7v15.6H57.7z"/>
		<path clip-path="url(#SVGID_2_)" fill="#FFFFFF" d="M70.4,71.5c-3.8,0-6.3-3.5-6.3-8c0-4.6,2.6-8.1,6.4-8.1c2.1,0,3.7,0.8,5,2.5
			l-1.4,1c-1-1.4-1.9-2-3.6-2c-2.7,0-4.6,2.6-4.6,6.4c0,3.8,2,6.5,4.6,6.5c2.6,0,4-1.6,4-4.7v-0.1h-2.8v-1.6h4.5V65
			C76.1,69.3,73.7,71.5,70.4,71.5z"/>
		<path clip-path="url(#SVGID_2_)" fill="#FFFFFF" d="M90.2,71.2l-6.8-10.7c-0.3-0.5-0.9-1.6-1.1-2v1.1v11.6h-1.7V55.7h1.7l6.7,10.9
			c0.3,0.5,0.9,1.6,1.1,2v-1.1V55.7h1.7v15.6H90.2z"/>
		<path clip-path="url(#SVGID_2_)" fill="#FFFFFF" d="M19.1,93.7c-3.8,0-6.3-3.5-6.3-8c0-4.6,2.6-8.1,6.4-8.1c2.1,0,3.7,0.8,5,2.5
			l-1.4,1c-1-1.4-1.9-2-3.6-2c-2.7,0-4.6,2.6-4.6,6.4c0,3.8,2,6.5,4.6,6.5c1.7,0,2.8-0.8,3.9-2l1.2,1C23,92.7,21.3,93.7,19.1,93.7z"
			/>
		<path clip-path="url(#SVGID_2_)" fill="#FFFFFF" d="M33.3,93.7c-3.9,0-6.4-3.3-6.4-8c0-4.7,2.6-8.1,6.5-8.1c3.9,0,6.5,3.3,6.5,8
			C39.8,90.4,37.2,93.7,33.3,93.7z M33.3,79.3c-2.7,0-4.7,2.5-4.7,6.4c0,3.9,2,6.5,4.8,6.5c2.7,0,4.7-2.5,4.7-6.4
			C38.1,81.8,36,79.3,33.3,79.3z"/>
		<path clip-path="url(#SVGID_2_)" fill="#FFFFFF" d="M55.9,93.5V82.9v-1.7c-0.2,0.6-0.6,1.8-0.9,2.6l-4.2,10l-4.1-10
			c-0.3-0.8-0.8-2-0.9-2.6v1.7v10.6h-1.7V77.9H46l3.7,9.3c0.4,0.9,0.9,2.4,1.1,3c0.2-0.7,0.8-2.1,1.1-3l3.7-9.3h1.9v15.6H55.9z"/>
		<path clip-path="url(#SVGID_2_)" fill="#FFFFFF" d="M74.3,93.5V82.9v-1.7c-0.2,0.6-0.6,1.8-0.9,2.6l-4.2,10l-4.1-10
			c-0.3-0.8-0.8-2-0.9-2.6v1.7v10.6h-1.7V77.9h1.9l3.7,9.3c0.4,0.9,0.9,2.4,1.1,3c0.2-0.7,0.8-2.1,1.1-3l3.7-9.3h1.9v15.6H74.3z"/>
		<path clip-path="url(#SVGID_2_)" fill="#FFFFFF" d="M86.4,93.7c-3.7,0-5.6-2.2-5.6-6.6v-9.3h1.7v9.2c0,3.4,1.3,5,4,5
			c2.7,0,3.8-1.6,3.8-5v-9.3H92v9.2C92,91.5,90.2,93.7,86.4,93.7z"/>
		<path clip-path="url(#SVGID_2_)" fill="#FFFFFF" d="M106.4,93.5l-6.8-10.7c-0.3-0.5-0.9-1.6-1.1-2v1.1v11.6h-1.7V77.9h1.7
			l6.7,10.9c0.3,0.5,0.9,1.6,1.1,2v-1.1V77.9h1.7v15.6H106.4z"/>
	</g>
</g>
<g>
	<defs>
		<line id="SVGID_3_" x1="176.8" y1="-105.2" x2="176.8" y2="-105.2"/>
	</defs>
	<use xlink:href="#SVGID_3_"  overflow="visible" fill-rule="evenodd" clip-rule="evenodd"/>
	<clipPath id="SVGID_4_">
		<use xlink:href="#SVGID_3_"  overflow="visible"/>
	</clipPath>
	<g clip-path="url(#SVGID_4_)">
		<path fill="#FFFFFF" d="M195.9,92.9c1.7,0,2.8-0.8,3.9-2l1.2,1c-1.1,1.5-2.8,2.6-5.1,2.6"/>
		<path fill="#FFFFFF" d="M210.1,94.5 M210.2,92.9"/>
		<path fill="#FFFFFF" d="M234.3,94.2h-1.7 M227.6,91 M222.5,94.2h-1.7 M227.5,94.6"/>
		<path fill="#FFFFFF" d="M252.7,94.2H251 M246,91 M240.9,94.2h-1.7 M245.9,94.6"/>
		<path fill="#FFFFFF" d="M263.3,92.9 M263.2,94.5"/>
		<path fill="#FFFFFF" d="M284.8,94.2h-1.6 M282.1,89.5c0.3,0.5,0.9,1.6,1.1,2v-1.1 M275.3,94.2h-1.7"/>
		<path fill="#FFFFFF" d="M291.6,94.2h-1.7"/>
		<path fill="#FFFFFF" d="M301.6,94.2h-1.7"/>
		<path fill="#FFFFFF" d="M316.5,94.2h-1.7"/>
	</g>
</g>
<rect x="-944.1" y="297.6" fill-rule="evenodd" clip-rule="evenodd" fill="#EEBD31" width="55.3" height="55.3"/>
<rect x="-888.8" y="518.7" fill-rule="evenodd" clip-rule="evenodd" fill="#231F20" width="55.3" height="55.3"/>
<rect x="-888.8" y="408.1" fill-rule="evenodd" clip-rule="evenodd" fill="#EEBD31" width="55.3" height="55.3"/>
<rect x="-833.5" y="408.1" fill-rule="evenodd" clip-rule="evenodd" fill="#EEBD31" width="55.3" height="55.3"/>
<rect x="-778.2" y="408.1" fill-rule="evenodd" clip-rule="evenodd" fill="#EEBD31" width="55.3" height="55.3"/>
<rect x="-722.9" y="352.9" fill-rule="evenodd" clip-rule="evenodd" fill="#EEBD31" width="55.3" height="55.3"/>
<rect x="-888.8" y="297.6" fill-rule="evenodd" clip-rule="evenodd" fill="#EEBD31" width="55.3" height="55.3"/>
<rect x="-833.5" y="297.6" fill-rule="evenodd" clip-rule="evenodd" fill="#EEBD31" width="55.3" height="55.3"/>
<rect x="-778.2" y="297.6" fill-rule="evenodd" clip-rule="evenodd" fill="#EEBD31" width="55.3" height="55.3"/>
<g>
	<defs>
		<polygon id="SVGID_5_" points="-888.8,518.7 -833.5,518.7 -833.5,574 -888.8,574 -888.8,518.7 		"/>
	</defs>
	<use xlink:href="#SVGID_5_"  overflow="visible" fill-rule="evenodd" clip-rule="evenodd"/>
	<clipPath id="SVGID_6_">
		<use xlink:href="#SVGID_5_"  overflow="visible"/>
	</clipPath>
	<path clip-path="url(#SVGID_6_)" fill="#FFFFFF" d="M-876.5,532.7l-0.7-2.1h-3.4l-0.7,2.1h-0.9l2.8-8.1h1l2.8,8.1H-876.5z
		 M-878.4,527.1c-0.2-0.5-0.4-1.3-0.5-1.6c-0.1,0.3-0.3,1.1-0.5,1.6l-0.9,2.6h2.8L-878.4,527.1z"/>
	<path clip-path="url(#SVGID_6_)" fill="#FFFFFF" d="M-856.5,532.7l-0.7-2.1h-3.4l-0.7,2.1h-0.9l2.8-8.1h1l2.8,8.1H-856.5z
		 M-858.4,527.1c-0.2-0.5-0.4-1.3-0.5-1.6c-0.1,0.3-0.3,1.1-0.5,1.6l-0.9,2.6h2.8L-858.4,527.1z"/>
	<path clip-path="url(#SVGID_6_)" fill="#FFFFFF" d="M-878,540.7l1.8,3.5h-1l-1.7-3.5h-1.9v3.5h-0.9v-8.1h3.2c1.4,0,2.5,0.7,2.5,2.3
		C-876,539.7-876.8,540.5-878,540.7z M-878.6,537h-2.3v3h2.2c1.2,0,1.8-0.5,1.8-1.5C-876.9,537.5-877.5,537-878.6,537z"/>
	<path clip-path="url(#SVGID_6_)" fill="#FFFFFF" d="M-868.3,544.3l-0.7-2.1h-3.4l-0.7,2.1h-0.9l2.8-8.1h1l2.8,8.1H-868.3z
		 M-870.2,538.7c-0.2-0.5-0.4-1.3-0.5-1.6c-0.1,0.3-0.3,1.1-0.5,1.6l-0.9,2.6h2.8L-870.2,538.7z"/>
	<path clip-path="url(#SVGID_6_)" fill="#FFFFFF" d="M-865.1,544.3v-8.1h0.9v7.3h4v0.8H-865.1z"/>
	<path clip-path="url(#SVGID_6_)" fill="#FFFFFF" d="M-857.9,544.3v-8.1h4.9v0.8h-4v2.6h2.3v0.8h-2.3v3.1h4.2v0.8H-857.9z"/>
	<path clip-path="url(#SVGID_6_)" fill="#FFFFFF" d="M-850.5,544.3v-8.1h0.9v8.1H-850.5z"/>
	<path clip-path="url(#SVGID_6_)" fill="#FFFFFF" d="M-843.7,544.4c-2,0-3.3-1.8-3.3-4.2c0-2.4,1.4-4.2,3.3-4.2c1.1,0,2,0.4,2.6,1.3
		l-0.7,0.5c-0.5-0.7-1-1-1.9-1c-1.4,0-2.4,1.4-2.4,3.4c0,2,1,3.4,2.4,3.4c1.4,0,2.1-0.8,2.1-2.4v-0.1h-1.5v-0.8h2.3v0.8
		C-840.7,543.3-842,544.4-843.7,544.4z"/>
	<path clip-path="url(#SVGID_6_)" fill="#FFFFFF" d="M-873.5,532.7v-8.1h0.9v8.1H-873.5z"/>
	<path clip-path="url(#SVGID_6_)" fill="#FFFFFF" d="M-866.7,532.8c-2,0-3.3-1.8-3.3-4.2c0-2.4,1.4-4.2,3.3-4.2c1.1,0,2,0.4,2.6,1.3
		l-0.7,0.5c-0.5-0.7-1-1-1.9-1c-1.4,0-2.4,1.4-2.4,3.4c0,2,1,3.4,2.4,3.4c1.4,0,2.1-0.8,2.1-2.4v-0.1h-1.5v-0.8h2.3v0.8
		C-863.7,531.7-865,532.8-866.7,532.8z"/>
	<path clip-path="url(#SVGID_6_)" fill="#FFFFFF" d="M-833.3,544.3v-3.8h-4v3.8h-0.9v-8.1h0.9v3.5h4v-3.5h0.9v8.1H-833.3z"/>
	<path clip-path="url(#SVGID_6_)" fill="#FFFFFF" d="M-879.8,555.9h-2v-8.1h2.1c2.1,0,3.7,1.2,3.7,4
		C-875.9,554.7-877.6,555.9-879.8,555.9z M-879.7,548.6h-1.2v6.5h1.2c1.8,0,2.8-0.9,2.8-3.3C-876.8,549.7-877.8,548.6-879.7,548.6z"
		/>
	<path clip-path="url(#SVGID_6_)" fill="#FFFFFF" d="M-873.5,555.9v-8.1h4.9v0.8h-4v2.6h2.3v0.8h-2.3v3.1h4.2v0.8H-873.5z"/>
	<path clip-path="url(#SVGID_6_)" fill="#FFFFFF" d="M-863.8,556c-1.1,0-2.1-0.5-2.7-1.1l0.6-0.7c0.6,0.6,1.3,1,2.2,1
		c1.1,0,1.8-0.5,1.8-1.4c0-0.8-0.5-1.2-1.9-1.7c-1.8-0.6-2.3-1.2-2.3-2.4c0-1.3,1-2.1,2.5-2.1c1.1,0,1.8,0.3,2.5,0.9l-0.6,0.7
		c-0.6-0.5-1.1-0.8-2-0.8c-1.1,0-1.6,0.6-1.6,1.2c0,0.7,0.3,1.1,1.9,1.6c1.8,0.6,2.4,1.3,2.4,2.5C-861.1,555-862.1,556-863.8,556z"
		/>
	<path clip-path="url(#SVGID_6_)" fill="#FFFFFF" d="M-858.7,555.9v-8.1h0.9v8.1H-858.7z"/>
	<path clip-path="url(#SVGID_6_)" fill="#FFFFFF" d="M-852.1,556c-2,0-3.3-1.8-3.3-4.2c0-2.4,1.4-4.2,3.3-4.2c1.1,0,2,0.4,2.6,1.3
		l-0.7,0.5c-0.5-0.7-1-1-1.9-1c-1.4,0-2.4,1.4-2.4,3.4c0,2,1,3.4,2.4,3.4c1.4,0,2.1-0.8,2.1-2.4v-0.1h-1.5v-0.8h2.3v0.8
		C-849.1,554.9-850.3,556-852.1,556z"/>
	<path clip-path="url(#SVGID_6_)" fill="#FFFFFF" d="M-841.7,555.9l-3.6-5.6c-0.2-0.3-0.5-0.8-0.6-1v0.6v6h-0.9v-8.1h0.9l3.5,5.7
		c0.2,0.3,0.5,0.8,0.6,1v-0.6v-6.1h0.9v8.1H-841.7z"/>
	<path clip-path="url(#SVGID_6_)" fill="#FFFFFF" d="M-878.8,567.6c-2,0-3.3-1.8-3.3-4.2c0-2.4,1.4-4.2,3.3-4.2c1.1,0,2,0.4,2.6,1.3
		l-0.7,0.5c-0.5-0.7-1-1-1.9-1c-1.4,0-2.4,1.4-2.4,3.4c0,2,1,3.4,2.4,3.4c0.9,0,1.5-0.4,2-1.1l0.6,0.5
		C-876.8,567.1-877.7,567.6-878.8,567.6z"/>
	<path clip-path="url(#SVGID_6_)" fill="#FFFFFF" d="M-871.4,567.6c-2,0-3.4-1.7-3.4-4.2c0-2.5,1.4-4.2,3.4-4.2s3.4,1.7,3.4,4.2
		C-868,565.9-869.4,567.6-871.4,567.6z M-871.4,560.1c-1.4,0-2.4,1.3-2.4,3.4c0,2,1.1,3.4,2.5,3.4c1.4,0,2.5-1.3,2.5-3.4
		C-868.9,561.4-870,560.1-871.4,560.1z"/>
	<path clip-path="url(#SVGID_6_)" fill="#FFFFFF" d="M-859.6,567.5V562v-0.9c-0.1,0.3-0.3,0.9-0.5,1.3l-2.2,5.2l-2.1-5.2
		c-0.2-0.4-0.4-1-0.5-1.3v0.9v5.5h-0.9v-8.1h1l1.9,4.9c0.2,0.5,0.5,1.2,0.6,1.6c0.1-0.3,0.4-1.1,0.6-1.6l1.9-4.9h1v8.1H-859.6z"/>
	<path clip-path="url(#SVGID_6_)" fill="#FFFFFF" d="M-850,567.5V562v-0.9c-0.1,0.3-0.3,0.9-0.5,1.3l-2.2,5.2l-2.1-5.2
		c-0.2-0.4-0.4-1-0.5-1.3v0.9v5.5h-0.9v-8.1h1l1.9,4.9c0.2,0.5,0.5,1.2,0.6,1.6c0.1-0.3,0.4-1.1,0.6-1.6l1.9-4.9h1v8.1H-850z"/>
	<path clip-path="url(#SVGID_6_)" fill="#FFFFFF" d="M-843.7,567.6c-1.9,0-2.9-1.2-2.9-3.4v-4.8h0.9v4.8c0,1.8,0.7,2.6,2.1,2.6
		c1.4,0,2-0.8,2-2.6v-4.8h0.9v4.8C-840.8,566.5-841.8,567.6-843.7,567.6z"/>
	<path clip-path="url(#SVGID_6_)" fill="#FFFFFF" d="M-833.2,567.5l-3.6-5.6c-0.2-0.3-0.5-0.8-0.6-1v0.6v6h-0.9v-8.1h0.9l3.5,5.7
		c0.2,0.3,0.5,0.8,0.6,1v-0.6v-6.1h0.9v8.1H-833.2z"/>
</g>
</svg>
